<?xml version="1.0" standalone="no"?>
<!DOCTYPE svg PUBLIC "-//W3C//DTD SVG 20010904//EN"
 "http://www.w3.org/TR/2001/REC-SVG-20010904/DTD/svg10.dtd">
<svg version="1.0" xmlns="http://www.w3.org/2000/svg"
 width="231.000000pt" height="231.000000pt" viewBox="0 0 231.000000 231.000000"
 preserveAspectRatio="xMidYMid meet">
<metadata>
Created by potrace 1.11, written by Peter Selinger 2001-2013
</metadata>
<g transform="translate(0.000000,231.000000) scale(0.100000,-0.100000)"
fill="#000000" stroke="none">
<path d="M1160 1772 c0 -5 7 -28 14 -53 8 -24 27 -84 41 -132 34 -112 50 -114
107 -12 22 39 53 94 70 123 26 46 27 52 11 52 -11 0 -28 -19 -47 -53 -69 -126
-88 -158 -92 -154 -2 2 -18 51 -35 108 -17 57 -36 110 -41 117 -12 14 -28 16
-28 4z"/>
<path d="M820 1723 c-30 -8 -56 -16 -58 -18 -5 -5 59 -239 68 -249 5 -4 13 -5
18 -2 7 4 -1 47 -20 117 -33 124 -33 123 34 134 47 8 58 1 58 -35 0 -20 -8
-35 -25 -46 -14 -9 -25 -22 -25 -29 0 -12 105 -105 119 -105 3 0 12 4 19 9 9
5 -3 20 -43 51 -58 45 -64 54 -41 67 16 10 36 46 36 67 0 24 -37 56 -62 55
-13 0 -48 -8 -78 -16z"/>
<path d="M1466 1605 c-39 -123 -43 -145 -23 -145 8 0 28 46 50 119 20 66 37
122 37 124 0 3 -6 7 -14 10 -10 4 -23 -25 -50 -108z"/>
<path d="M563 1612 c-35 -20 -63 -40 -63 -44 0 -5 28 -58 62 -118 l63 -109 68
37 c65 35 87 55 73 69 -3 3 -11 1 -18 -4 -7 -5 -34 -22 -60 -36 l-46 -27 -21
34 c-12 18 -21 38 -21 43 0 5 22 22 50 37 53 29 66 41 51 50 -5 4 -33 -7 -61
-24 -28 -16 -53 -30 -56 -30 -5 0 -44 62 -44 72 0 3 25 20 55 37 52 29 71 52
43 51 -7 -1 -41 -17 -75 -38z"/>
<path d="M1601 1624 c-38 -49 -23 -84 57 -130 24 -14 32 -25 32 -46 0 -58 -71
-56 -136 4 -17 15 -24 16 -30 7 -10 -17 33 -52 90 -74 43 -16 47 -17 71 -1 62
40 55 100 -14 136 -52 26 -65 50 -45 78 24 34 70 26 121 -20 12 -11 27 -17 33
-13 28 17 -74 85 -129 85 -20 0 -36 -8 -50 -26z"/>
<path d="M1803 1420 c-77 -100 -84 -111 -65 -118 12 -4 162 179 162 196 0 33
-27 12 -97 -78z"/>
<path d="M374 1479 c-3 -6 26 -44 67 -86 44 -44 66 -73 54 -70 -11 3 -71 11
-133 18 -157 17 -160 12 -47 -101 85 -85 115 -106 115 -78 0 7 -32 44 -70 83
l-71 71 131 -16 c179 -22 182 -17 64 101 -49 49 -92 89 -96 89 -4 0 -10 -5
-14 -11z"/>
<path d="M1922 1373 c-38 -19 -77 -66 -87 -105 -15 -60 66 -158 132 -158 62 0
131 57 146 121 9 36 -29 108 -72 136 -40 27 -74 29 -119 6z m124 -47 c56 -56
44 -119 -30 -165 -46 -29 -69 -26 -111 10 -28 25 -35 38 -35 69 0 44 25 80 72
103 48 24 66 21 104 -17z"/>
<path d="M1185 1275 c-121 -26 -263 -90 -381 -171 -278 -190 -411 -273 -501
-310 -32 -13 -49 -24 -38 -24 11 0 63 20 115 43 87 40 147 74 453 260 116 71
226 118 335 143 86 20 248 20 327 -1 80 -20 190 -75 242 -119 46 -40 67 -45
78 -18 17 43 -165 161 -301 196 -75 19 -244 20 -329 1z"/>
<path d="M135 1201 c-5 -9 55 -46 149 -94 35 -17 31 -19 -74 -37 -205 -36
-208 -41 -51 -120 94 -47 120 -56 125 -45 4 11 -20 28 -84 60 -50 25 -90 47
-90 49 0 2 55 14 123 26 172 32 175 39 36 112 -116 61 -124 64 -134 49z"/>
<path d="M1080 1125 c-126 -33 -252 -96 -380 -190 -114 -84 -171 -116 -240
-136 -55 -15 -70 -27 -50 -39 17 -10 55 -4 133 22 l58 20 44 -41 c89 -82 269
-151 448 -172 184 -22 374 16 543 106 68 37 90 44 133 43 94 -2 124 65 48 108
-28 15 -45 36 -66 80 -49 103 -162 184 -299 213 -94 20 -265 13 -372 -14z
m293 -56 c28 -12 47 -47 47 -84 0 -13 5 -27 12 -31 8 -5 6 -10 -8 -15 -15 -6
-12 -8 13 -8 32 -1 57 -21 35 -29 -7 -2 -10 -8 -7 -12 3 -5 3 -21 -1 -35 -5
-22 -11 -26 -31 -20 -16 4 -22 2 -18 -5 3 -5 13 -10 21 -10 8 0 14 -4 14 -9 0
-20 -22 -22 -48 -6 -25 15 -25 15 3 -9 24 -21 27 -28 17 -38 -11 -11 -15 -10
-23 4 -5 10 -20 23 -32 29 -18 10 -17 7 7 -19 16 -17 25 -35 21 -42 -5 -8 -17
0 -37 22 -16 18 -26 26 -22 18 4 -8 14 -23 22 -32 12 -14 12 -20 2 -33 -18
-22 -49 -18 -60 8 -6 16 -9 17 -9 5 -1 -9 4 -20 10 -24 8 -4 8 -9 0 -17 -15
-15 -31 2 -42 45 l-8 33 2 -40 c1 -22 -2 -42 -8 -45 -6 -3 -11 26 -12 75 -1
53 1 72 7 55 7 -21 8 -22 9 -5 1 15 3 17 10 7 6 -10 10 -8 14 9 6 23 6 23 28
3 l22 -19 -13 25 -13 25 24 -20 c13 -11 18 -13 12 -5 -7 8 -13 18 -13 23 0 4
6 5 13 1 9 -6 9 -4 -1 8 -11 14 -9 17 14 25 l27 9 -40 12 c-83 25 -113 103
-58 157 26 27 60 32 98 14z m180 -46 c15 -7 32 -11 38 -8 5 4 8 1 7 -7 -2 -7
5 -12 14 -12 10 1 16 -2 13 -6 -3 -4 10 -18 28 -30 32 -22 87 -90 87 -108 0
-5 17 -14 39 -20 84 -26 73 -77 -17 -77 -36 0 -69 -11 -142 -48 -146 -73 -225
-91 -405 -91 -173 0 -263 18 -400 83 -83 40 -169 106 -159 122 11 19 270 179
289 179 3 0 5 -33 5 -72 0 -93 29 -157 95 -216 180 -158 455 -31 456 210 0 35
-4 76 -10 91 -6 16 -11 31 -11 33 0 7 38 -5 73 -23z m-455 -103 c2 -20 -3 -30
-15 -33 -10 -3 -4 -5 12 -4 17 0 40 -3 53 -7 23 -8 51 -52 53 -83 0 -16 1 -16
9 2 6 14 9 -3 9 -53 l1 -74 -42 7 c-60 10 -71 21 -51 51 8 13 11 24 6 24 -5 0
-15 -12 -22 -27 -9 -19 -15 -23 -23 -15 -8 8 -8 15 2 27 7 8 10 18 7 22 -4 3
-9 -2 -13 -11 -7 -18 -34 -22 -34 -5 0 7 8 18 18 25 9 7 12 14 5 14 -6 0 -15
-4 -18 -10 -11 -17 -22 -11 -42 23 -34 57 -36 83 -9 111 13 14 34 26 47 27 13
0 18 3 10 6 -10 4 -11 7 -1 13 21 13 36 2 38 -30z"/>
<path d="M1368 903 c6 -2 18 -2 25 0 6 3 1 5 -13 5 -14 0 -19 -2 -12 -5z"/>
<path d="M1428 903 c7 -3 16 -2 19 1 4 3 -2 6 -13 5 -11 0 -14 -3 -6 -6z"/>
<path d="M1400 870 c34 -11 60 -11 35 0 -11 5 -29 8 -40 8 -16 0 -15 -2 5 -8z"/>
<path d="M1350 860 c8 -5 20 -10 25 -10 6 0 3 5 -5 10 -8 5 -19 10 -25 10 -5
0 -3 -5 5 -10z"/>
<path d="M1280 814 c0 -6 7 -19 16 -30 14 -18 14 -18 3 6 -14 31 -19 36 -19
24z"/>
<path d="M1320 731 c0 -5 7 -15 17 -22 15 -13 15 -12 4 9 -12 23 -21 28 -21
13z"/>
<path d="M1048 903 c6 -2 18 -2 25 0 6 3 1 5 -13 5 -14 0 -19 -2 -12 -5z"/>
<path d="M1010 870 c-20 -6 -21 -8 -5 -8 11 0 29 3 40 8 25 11 -1 11 -35 0z"/>
<path d="M1020 834 l-25 -15 25 7 c14 3 29 10 35 15 15 14 -7 10 -35 -7z"/>
<path d="M1147 711 c-4 -17 -3 -21 5 -13 5 5 8 16 6 23 -3 8 -7 3 -11 -10z"/>
<path d="M1186 705 c-9 -26 -7 -32 5 -12 6 10 9 21 6 23 -2 3 -7 -2 -11 -11z"/>
<path d="M2096 1065 c-119 -48 -124 -51 -110 -65 7 -7 40 2 98 26 49 19 90 33
92 31 3 -2 -25 -55 -62 -116 -86 -144 -83 -149 68 -91 127 49 130 51 120 66
-5 8 -34 1 -96 -22 -49 -19 -91 -32 -94 -30 -2 3 25 53 61 112 60 99 72 135
43 133 -6 0 -60 -20 -120 -44z"/>
<path d="M5 890 c-4 -6 -5 -13 -2 -16 2 -3 51 -18 108 -33 57 -15 114 -31 127
-35 17 -6 22 -3 22 11 0 18 -27 27 -226 79 -12 3 -25 1 -29 -6z"/>
<path d="M535 749 c-20 -31 149 -138 279 -178 92 -28 118 -25 34 4 -97 34
-178 79 -241 136 -59 53 -62 54 -72 38z"/>
</g>
</svg>
